<svg width="4262" height="4352" viewBox="0 0 4262 4352" fill="none" xmlns="http://www.w3.org/2000/svg">
<defs>
  <filter id="maskBlur" x="-50%" y="-50%" width="200%" height="200%" color-interpolation-filters="sRGB">
    <feGaussianBlur in="SourceGraphic" stdDeviation="250"/>
  </filter>
</defs>
<g clip-path="url(#clip0_1195_1839)">
<mask id="mask0_1195_1839" style="mask-type:luminance" maskUnits="userSpaceOnUse" x="0" y="0" width="4262" height="4352">
<path d="M4262 0H0V4352H4262V0Z" fill="white"/>
</mask>
<g mask="url(#mask0_1195_1839)">
<mask id="mask1_1195_1839" style="mask-type:alpha" maskUnits="userSpaceOnUse" x="1157" y="-681" width="3797" height="3798">
<g filter="url(#maskBlur)">
<path d="M1876.22 776.919L1181.27 -539.459L1157.9 -680.1H4953.2V3116.1H4342.56L4094.21 2823.28L2705.15 2455.31L1839.07 1860.01L1876.22 776.919Z" fill="#D9D9D9"/>
</g>
</mask>
<g mask="url(#mask1_1195_1839)">
<path d="M4024.08 -13.5742C4034.34 -31.3885 4056.87 -37.6785 4074.81 -27.9004L4075.66 -27.4229L4329.64 119.562V119.563C4354.79 134.13 4354.79 170.537 4329.64 185.104V185.104L4075.66 332.089C4057.59 342.542 4034.51 336.338 4024.08 318.241L4018.75 309.011L4018.74 309.006C4008.35 290.932 4014.49 267.817 4032.53 257.348L4164.4 180.75C4186.17 168.098 4186.17 136.567 4164.4 123.916L4032.53 47.3193V47.3184C4014.49 36.8491 4008.35 13.7344 4018.74 -4.33887L4018.75 -4.34375L4024.08 -13.5742Z" stroke="black" stroke-width="5"/>
<path d="M1675.2 -13.5742C1685.62 -31.6711 1708.71 -37.8753 1726.77 -27.4229L1980.75 119.562V119.563C2005.91 134.13 2005.91 170.537 1980.75 185.104V185.104L1726.77 332.089C1708.71 342.542 1685.62 336.338 1675.2 318.241L1669.86 309.011L1669.86 309.006C1659.47 290.932 1665.61 267.817 1683.64 257.348L1815.51 180.75C1837.29 168.098 1837.29 136.567 1815.51 123.916V123.915L1683.64 47.3193C1665.61 36.8503 1659.47 13.7346 1669.86 -4.33887L1669.86 -4.34375L1675.2 -13.5742Z" stroke="black" stroke-width="5"/>
<path d="M2849.64 -13.5742C2860.06 -31.6711 2883.15 -37.8753 2901.21 -27.4229L3155.2 119.562V119.563C3180.35 134.13 3180.35 170.537 3155.2 185.104V185.104L2901.21 332.089C2883.15 342.542 2860.06 336.338 2849.64 318.241L2844.31 309.011L2844.3 309.006C2833.91 290.932 2840.05 267.817 2858.08 257.348L2989.96 180.75C3011.73 168.098 3011.73 136.567 2989.95 123.916V123.915L2858.08 47.3193C2840.05 36.8503 2833.91 13.7346 2844.3 -4.33887L2844.31 -4.34375L2849.64 -13.5742Z" stroke="black" stroke-width="5"/>
<path d="M3632.6 -13.5742C3643.03 -31.6711 3666.11 -37.8753 3684.18 -27.4229L3938.16 119.562L3938.16 119.563C3963.31 134.13 3963.31 170.537 3938.16 185.104L3938.16 185.104L3684.18 332.089C3666.11 342.542 3643.03 336.338 3632.6 318.241L3627.27 309.011L3627.26 309.006C3616.87 290.932 3623.01 267.817 3641.05 257.348L3772.92 180.75C3794.69 168.098 3794.69 136.567 3772.92 123.916L3641.05 47.3193C3623.01 36.8503 3616.87 13.7346 3627.26 -4.33887L3627.27 -4.34375L3632.6 -13.5742Z" stroke="black" stroke-width="5"/>
<path d="M1283.72 -13.5742C1294.14 -31.6711 1317.23 -37.8753 1335.29 -27.4229L1589.27 119.562V119.563C1614.43 134.13 1614.43 170.537 1589.27 185.104V185.104L1335.29 332.089C1317.23 342.542 1294.14 336.338 1283.72 318.241L1278.38 309.011L1278.38 309.006C1267.99 290.932 1274.13 267.817 1292.16 257.348L1424.03 180.75C1445.81 168.098 1445.81 136.567 1424.03 123.916V123.915L1292.16 47.3193C1274.13 36.8503 1267.99 13.7346 1278.38 -4.33887L1278.38 -4.34375L1283.72 -13.5742Z" stroke="black" stroke-width="5"/>
<path d="M2458.16 -13.5742C2468.58 -31.6711 2491.67 -37.8753 2509.73 -27.4229L2763.71 119.562V119.563C2788.87 134.13 2788.87 170.537 2763.71 185.104V185.104L2509.73 332.089C2491.67 342.542 2468.58 336.338 2458.16 318.241L2452.83 309.011L2452.82 309.006C2442.43 290.932 2448.57 267.817 2466.6 257.348L2598.47 180.75C2620.25 168.098 2620.25 136.567 2598.47 123.916V123.915L2466.6 47.3193C2448.57 36.8503 2442.43 13.7346 2452.82 -4.33887L2452.83 -4.34375L2458.16 -13.5742Z" stroke="black" stroke-width="5"/>
<path d="M3241.12 -13.5742C3251.55 -31.6711 3274.63 -37.8753 3292.7 -27.4229L3546.68 119.562V119.563C3571.83 134.13 3571.83 170.537 3546.68 185.104V185.104L3292.7 332.089C3274.63 342.542 3251.55 336.338 3241.12 318.241L3235.79 309.011L3235.78 309.006C3225.39 290.932 3231.53 267.817 3249.57 257.348L3381.44 180.75C3403.21 168.098 3403.21 136.567 3381.43 123.916V123.915L3249.57 47.3193C3231.53 36.8503 3225.39 13.7346 3235.78 -4.33887L3235.79 -4.34375L3241.12 -13.5742Z" stroke="black" stroke-width="5"/>
<path d="M892.239 -13.5742C902.662 -31.6711 925.749 -37.8753 943.812 -27.4229L1197.79 119.562V119.563C1222.94 134.13 1222.94 170.537 1197.79 185.104V185.104L943.812 332.089C925.749 342.542 902.662 336.338 892.239 318.241L886.903 309.011L886.9 309.006C876.51 290.932 882.649 267.817 900.683 257.348L1032.55 180.75C1054.33 168.098 1054.33 136.567 1032.55 123.916V123.915L900.683 47.3193C882.649 36.8503 876.511 13.7346 886.9 -4.33887L886.903 -4.34375L892.239 -13.5742Z" stroke="black" stroke-width="5"/>
<path d="M2066.68 -13.5742C2077.1 -31.6711 2100.19 -37.8753 2118.25 -27.4229L2372.23 119.562V119.563C2397.39 134.13 2397.39 170.537 2372.23 185.104V185.104L2118.25 332.089C2100.19 342.542 2077.1 336.338 2066.68 318.241L2061.34 309.011L2061.34 309.006C2050.95 290.932 2057.09 267.817 2075.12 257.348L2206.99 180.75C2228.77 168.098 2228.77 136.567 2206.99 123.916V123.915L2075.12 47.3193C2057.09 36.8503 2050.95 13.7346 2061.34 -4.33887L2061.34 -4.34375L2066.68 -13.5742Z" stroke="black" stroke-width="5"/>
<path d="M4024.08 1445.09C4034.34 1427.28 4056.87 1420.99 4074.81 1430.77L4075.66 1431.24V1431.24L4329.64 1578.23L4330.22 1578.58C4354.59 1593.25 4354.59 1628.75 4330.22 1643.43L4329.64 1643.77L4075.66 1790.76C4057.59 1801.21 4034.51 1795.01 4024.08 1776.91L4018.75 1767.68L4018.74 1767.67C4008.35 1749.6 4014.49 1726.49 4032.53 1716.02L4164.4 1639.42C4186.17 1626.77 4186.17 1595.24 4164.4 1582.58L4032.53 1505.99V1505.99C4014.49 1495.52 4008.35 1472.4 4018.74 1454.33L4018.75 1454.32L4024.08 1445.09Z" stroke="black" stroke-width="5"/>
<path d="M1675.2 1445.09C1685.62 1427 1708.71 1420.79 1726.77 1431.24V1431.24L1980.75 1578.23C2005.71 1592.68 2005.9 1628.64 1981.34 1643.43L1980.75 1643.77L1726.77 1790.76C1708.71 1801.21 1685.62 1795.01 1675.2 1776.91L1669.86 1767.68L1669.86 1767.67C1659.47 1749.6 1665.61 1726.49 1683.64 1716.02L1815.51 1639.42L1816.02 1639.12C1837.29 1626.28 1837.12 1595.14 1815.51 1582.58L1683.64 1505.99C1665.61 1495.52 1659.47 1472.4 1669.86 1454.33L1669.86 1454.32L1675.2 1445.09Z" stroke="black" stroke-width="5"/>
<path d="M2849.64 1445.09C2860.06 1427 2883.15 1420.79 2901.21 1431.24V1431.24L3155.2 1578.23C3180.15 1592.68 3180.35 1628.64 3155.78 1643.43L3155.2 1643.77L2901.21 1790.76C2883.15 1801.21 2860.06 1795.01 2849.64 1776.91L2844.31 1767.68L2844.3 1767.67C2833.91 1749.6 2840.05 1726.49 2858.08 1716.02L2989.95 1639.42L2990.46 1639.12C3011.73 1626.28 3011.56 1595.14 2989.96 1582.58L2858.08 1505.99C2840.05 1495.52 2833.91 1472.4 2844.3 1454.33L2844.31 1454.32L2849.64 1445.09Z" stroke="black" stroke-width="5"/>
<path d="M3632.6 1445.09C3643.03 1427 3666.11 1420.79 3684.18 1431.24V1431.24L3938.16 1578.23H3938.16C3963.31 1592.8 3963.31 1629.21 3938.16 1643.77H3938.16L3684.18 1790.76C3666.11 1801.21 3643.03 1795.01 3632.6 1776.91L3627.27 1767.68L3627.26 1767.67C3616.87 1749.6 3623.01 1726.49 3641.05 1716.02L3772.92 1639.42C3794.69 1626.77 3794.69 1595.24 3772.92 1582.58V1582.58L3641.05 1505.99C3623.01 1495.52 3616.87 1472.4 3627.26 1454.33L3627.27 1454.32L3632.6 1445.09Z" stroke="black" stroke-width="5"/>
<path d="M1283.72 1445.09C1294.14 1427 1317.23 1420.79 1335.29 1431.24V1431.24L1589.27 1578.23C1614.23 1592.68 1614.42 1628.64 1589.86 1643.43L1589.27 1643.77L1335.29 1790.76C1317.23 1801.21 1294.14 1795.01 1283.72 1776.91L1278.38 1767.68L1278.38 1767.67C1267.99 1749.6 1274.13 1726.49 1292.16 1716.02L1424.03 1639.42L1424.54 1639.12C1445.81 1626.28 1445.64 1595.14 1424.03 1582.58L1292.16 1505.99C1274.13 1495.52 1267.99 1472.4 1278.38 1454.33L1278.38 1454.32L1283.72 1445.09Z" stroke="black" stroke-width="5"/>
<path d="M2458.16 1445.09C2468.58 1427 2491.67 1420.79 2509.73 1431.24V1431.24L2763.71 1578.23C2788.67 1592.68 2788.87 1628.64 2764.3 1643.43L2763.71 1643.77L2509.73 1790.76C2491.67 1801.21 2468.58 1795.01 2458.16 1776.91L2452.83 1767.68L2452.82 1767.67C2442.43 1749.6 2448.57 1726.49 2466.6 1716.02L2598.47 1639.42L2598.98 1639.12C2620.25 1626.28 2620.08 1595.14 2598.47 1582.58L2466.6 1505.99C2448.57 1495.52 2442.43 1472.4 2452.82 1454.33L2452.83 1454.32L2458.16 1445.09Z" stroke="black" stroke-width="5"/>
<path d="M3241.12 1445.09C3251.55 1427 3274.63 1420.79 3292.7 1431.24V1431.24L3546.68 1578.23C3571.63 1592.68 3571.83 1628.64 3547.26 1643.43L3546.68 1643.77L3292.7 1790.76C3274.63 1801.21 3251.55 1795.01 3241.12 1776.91L3235.79 1767.68L3235.78 1767.67C3225.39 1749.6 3231.53 1726.49 3249.57 1716.02L3381.43 1639.42L3381.94 1639.12C3403.21 1626.28 3403.04 1595.14 3381.44 1582.58L3249.57 1505.99C3231.53 1495.52 3225.39 1472.4 3235.78 1454.33L3235.79 1454.32L3241.12 1445.09Z" stroke="black" stroke-width="5"/>
<path d="M892.239 1445.09C902.662 1427 925.749 1420.79 943.812 1431.24V1431.24L1197.79 1578.23C1222.75 1592.68 1222.94 1628.64 1198.38 1643.43L1197.79 1643.77L943.812 1790.76C925.749 1801.21 902.662 1795.01 892.239 1776.91L886.903 1767.68L886.9 1767.67C876.511 1749.6 882.649 1726.49 900.683 1716.02L1032.55 1639.42L1033.06 1639.12C1054.33 1626.28 1054.16 1595.14 1032.55 1582.58L900.683 1505.99C882.649 1495.52 876.51 1472.4 886.9 1454.33L886.903 1454.32L892.239 1445.09Z" stroke="black" stroke-width="5"/>
<path d="M2066.68 1445.09C2077.1 1427 2100.19 1420.79 2118.25 1431.24V1431.24L2372.23 1578.23C2397.19 1592.68 2397.38 1628.64 2372.82 1643.43L2372.23 1643.77L2118.25 1790.76C2100.19 1801.21 2077.1 1795.01 2066.68 1776.91L2061.34 1767.68L2061.34 1767.67C2050.95 1749.6 2057.09 1726.49 2075.12 1716.02L2206.99 1639.42L2207.5 1639.12C2228.77 1626.28 2228.6 1595.14 2206.99 1582.58L2075.12 1505.99C2057.09 1495.52 2050.95 1472.4 2061.34 1454.33L2061.34 1454.32L2066.68 1445.09Z" stroke="black" stroke-width="5"/>
<path d="M4024.08 715.76C4034.34 697.946 4056.87 691.656 4074.81 701.432L4075.66 701.91V701.911L4329.64 848.898L4330.22 849.244C4354.59 863.915 4354.59 899.421 4330.22 914.092L4329.64 914.438L4075.66 1061.42C4057.59 1071.88 4034.51 1065.67 4024.08 1047.58L4018.75 1038.35L4018.74 1038.34C4008.35 1020.27 4014.49 997.152 4032.53 986.682L4164.4 910.083C4186.17 897.434 4186.17 865.903 4164.4 853.25L4032.53 776.654V776.653C4014.49 766.182 4008.35 743.068 4018.74 724.995L4018.75 724.99L4024.08 715.76Z" stroke="black" stroke-width="5"/>
<path d="M1675.2 715.76C1685.62 697.664 1708.71 691.459 1726.77 701.91V701.911L1980.75 848.898C2005.71 863.35 2005.9 899.304 1981.34 914.092L1980.75 914.438L1726.77 1061.42C1708.71 1071.88 1685.62 1065.67 1675.2 1047.58L1669.86 1038.35L1669.86 1038.34C1659.47 1020.27 1665.61 997.152 1683.64 986.682L1815.51 910.083L1816.02 909.784C1837.29 896.943 1837.12 865.804 1815.51 853.25L1683.64 776.654C1665.61 766.184 1659.47 743.068 1669.86 724.995L1669.86 724.99L1675.2 715.76Z" stroke="black" stroke-width="5"/>
<path d="M2849.64 715.76C2860.06 697.664 2883.15 691.459 2901.21 701.91V701.911L3155.2 848.898C3180.15 863.35 3180.35 899.304 3155.78 914.092L3155.2 914.438L2901.21 1061.42C2883.15 1071.88 2860.06 1065.67 2849.64 1047.58L2844.31 1038.35L2844.3 1038.34C2833.91 1020.27 2840.05 997.152 2858.08 986.682L2989.95 910.083L2990.46 909.784C3011.73 896.943 3011.56 865.804 2989.96 853.25L2858.08 776.654C2840.05 766.184 2833.91 743.068 2844.3 724.995L2844.31 724.99L2849.64 715.76Z" stroke="black" stroke-width="5"/>
<path d="M3632.6 715.76C3643.03 697.664 3666.11 691.459 3684.18 701.91V701.911L3938.16 848.898H3938.16C3963.31 863.464 3963.31 899.872 3938.16 914.438H3938.16L3684.18 1061.42C3666.11 1071.88 3643.03 1065.67 3632.6 1047.58L3627.27 1038.35L3627.26 1038.34C3616.87 1020.27 3623.01 997.152 3641.05 986.682L3772.92 910.083C3794.69 897.434 3794.69 865.902 3772.92 853.25V853.25L3641.05 776.654C3623.01 766.184 3616.87 743.068 3627.26 724.995L3627.27 724.99L3632.6 715.76Z" stroke="black" stroke-width="5"/>
<path d="M1283.72 715.76C1294.14 697.664 1317.23 691.459 1335.29 701.91V701.911L1589.27 848.898C1614.23 863.35 1614.42 899.304 1589.86 914.092L1589.27 914.438L1335.29 1061.42C1317.23 1071.88 1294.14 1065.67 1283.72 1047.58L1278.38 1038.35L1278.38 1038.34C1267.99 1020.27 1274.13 997.152 1292.16 986.682L1424.03 910.083L1424.54 909.784C1445.81 896.943 1445.64 865.804 1424.03 853.25L1292.16 776.654C1274.13 766.184 1267.99 743.068 1278.38 724.995L1278.38 724.99L1283.72 715.76Z" stroke="black" stroke-width="5"/>
<path d="M2458.16 715.76C2468.58 697.664 2491.67 691.459 2509.73 701.91V701.911L2763.71 848.898C2788.67 863.35 2788.87 899.304 2764.3 914.092L2763.71 914.438L2509.73 1061.42C2491.67 1071.88 2468.58 1065.67 2458.16 1047.58L2452.83 1038.35L2452.82 1038.34C2442.43 1020.27 2448.57 997.152 2466.6 986.682L2598.47 910.083L2598.98 909.784C2620.25 896.943 2620.08 865.804 2598.47 853.25L2466.6 776.654C2448.57 766.184 2442.43 743.068 2452.82 724.995L2452.83 724.99L2458.16 715.76Z" stroke="black" stroke-width="5"/>
<path d="M3241.12 715.76C3251.55 697.664 3274.63 691.459 3292.7 701.91V701.911L3546.68 848.898C3571.63 863.35 3571.83 899.304 3547.26 914.092L3546.68 914.438L3292.7 1061.42C3274.63 1071.88 3251.55 1065.67 3241.12 1047.58L3235.79 1038.35L3235.78 1038.34C3225.39 1020.27 3231.53 997.152 3249.57 986.682L3381.43 910.083L3381.94 909.784C3403.21 896.943 3403.04 865.804 3381.44 853.25L3249.57 776.654C3231.53 766.184 3225.39 743.068 3235.78 724.995L3235.79 724.99L3241.12 715.76Z" stroke="black" stroke-width="5"/>
<path d="M892.239 715.76C902.662 697.664 925.749 691.459 943.812 701.91V701.911L1197.79 848.898C1222.75 863.35 1222.94 899.304 1198.38 914.092L1197.79 914.438L943.812 1061.42C925.749 1071.88 902.662 1065.67 892.239 1047.58L886.903 1038.35L886.9 1038.34C876.511 1020.27 882.649 997.152 900.683 986.682L1032.55 910.083L1033.06 909.784C1054.33 896.943 1054.16 865.804 1032.55 853.25L900.683 776.654C882.649 766.184 876.51 743.068 886.9 724.995L886.903 724.99L892.239 715.76Z" stroke="black" stroke-width="5"/>
<path d="M2066.68 715.76C2077.1 697.664 2100.19 691.459 2118.25 701.91V701.911L2372.23 848.898C2397.19 863.35 2397.38 899.304 2372.82 914.092L2372.23 914.438L2118.25 1061.42C2100.19 1071.88 2077.1 1065.67 2066.68 1047.58L2061.34 1038.35L2061.34 1038.34C2050.95 1020.27 2057.09 997.152 2075.12 986.682L2206.99 910.083L2207.5 909.784C2228.77 896.943 2228.6 865.804 2206.99 853.25L2075.12 776.654C2057.09 766.184 2050.95 743.068 2061.34 724.995L2061.34 724.99L2066.68 715.76Z" stroke="black" stroke-width="5"/>
<path d="M4024.08 2174.42C4034.51 2156.33 4057.59 2150.12 4075.66 2160.58L4329.64 2307.56H4329.64C4354.79 2322.13 4354.79 2358.54 4329.64 2373.1H4329.64L4075.66 2520.09C4057.59 2530.54 4034.51 2524.34 4024.08 2506.24L4018.75 2497.01L4018.74 2497.01C4008.35 2478.93 4014.49 2455.82 4032.53 2445.35L4164.4 2368.75L4164.9 2368.45C4186.17 2355.61 4186 2324.47 4164.4 2311.92L4032.53 2235.32C4014.49 2224.85 4008.35 2201.73 4018.74 2183.66L4018.75 2183.66L4024.08 2174.42Z" stroke="black" stroke-width="5"/>
<path d="M1675.2 2174.42C1685.62 2156.33 1708.71 2150.12 1726.77 2160.58L1980.75 2307.56C2005.71 2322.02 2005.9 2357.97 1981.34 2372.76L1980.75 2373.1L1726.77 2520.09C1708.71 2530.54 1685.62 2524.34 1675.2 2506.24L1669.86 2497.01L1669.86 2497.01C1659.63 2479.21 1665.42 2456.54 1682.81 2445.85L1683.64 2445.35L1815.51 2368.75L1816.02 2368.45C1837.29 2355.61 1837.12 2324.47 1815.51 2311.92L1683.64 2235.32V2235.32C1665.61 2224.85 1659.47 2201.73 1669.86 2183.66L1669.86 2183.66L1675.2 2174.42Z" stroke="black" stroke-width="5"/>
<path d="M2849.64 2174.42C2860.06 2156.33 2883.15 2150.12 2901.21 2160.58L3155.2 2307.56C3180.15 2322.02 3180.35 2357.97 3155.78 2372.76L3155.2 2373.1L2901.21 2520.09C2883.15 2530.54 2860.06 2524.34 2849.64 2506.24L2844.31 2497.01L2844.3 2497.01C2834.08 2479.21 2839.86 2456.54 2857.25 2445.85L2858.09 2445.35L2989.95 2368.75L2990.46 2368.45C3011.73 2355.61 3011.56 2324.47 2989.96 2311.92L2858.09 2235.32V2235.32C2840.05 2224.85 2833.91 2201.73 2844.3 2183.66L2844.31 2183.66L2849.64 2174.42Z" stroke="black" stroke-width="5"/>
<path d="M3632.6 2174.42C3643.03 2156.33 3666.11 2150.12 3684.18 2160.58L3938.16 2307.56H3938.16C3963.31 2322.13 3963.31 2358.54 3938.16 2373.1H3938.16L3684.18 2520.09C3666.11 2530.54 3643.03 2524.34 3632.6 2506.24L3627.27 2497.01L3627.26 2497.01C3617.04 2479.21 3622.82 2456.54 3640.21 2445.85L3641.05 2445.35L3772.92 2368.75L3773.42 2368.45C3794.69 2355.61 3794.52 2324.47 3772.92 2311.92L3641.05 2235.32V2235.32C3623.01 2224.85 3616.87 2201.73 3627.26 2183.66L3627.27 2183.66L3632.6 2174.42Z" stroke="black" stroke-width="5"/>
<path d="M1283.72 2174.42C1294.14 2156.33 1317.23 2150.12 1335.29 2160.58L1589.27 2307.56C1614.23 2322.02 1614.42 2357.97 1589.86 2372.76L1589.27 2373.1L1335.29 2520.09C1317.23 2530.54 1294.14 2524.34 1283.72 2506.24L1278.38 2497.01L1278.38 2497.01C1268.15 2479.21 1273.94 2456.54 1291.33 2445.85L1292.16 2445.35L1424.03 2368.75L1424.54 2368.45C1445.81 2355.61 1445.64 2324.47 1424.03 2311.92L1292.16 2235.32V2235.32C1274.13 2224.85 1267.99 2201.73 1278.38 2183.66L1278.38 2183.66L1283.72 2174.42Z" stroke="black" stroke-width="5"/>
<path d="M2458.16 2174.42C2468.58 2156.33 2491.67 2150.12 2509.73 2160.58L2763.71 2307.56C2788.67 2322.02 2788.87 2357.97 2764.3 2372.76L2763.71 2373.1L2509.73 2520.09C2491.67 2530.54 2468.58 2524.34 2458.16 2506.24L2452.83 2497.01L2452.82 2497.01C2442.59 2479.21 2448.38 2456.54 2465.77 2445.85L2466.61 2445.35L2598.47 2368.75L2598.98 2368.45C2620.25 2355.61 2620.08 2324.47 2598.47 2311.92L2466.61 2235.32V2235.32C2448.57 2224.85 2442.43 2201.73 2452.82 2183.66L2452.83 2183.66L2458.16 2174.42Z" stroke="black" stroke-width="5"/>
<path d="M3241.12 2174.42C3251.55 2156.33 3274.63 2150.12 3292.7 2160.58L3546.68 2307.56C3571.63 2322.02 3571.83 2357.97 3547.26 2372.76L3546.68 2373.1L3292.7 2520.09C3274.63 2530.54 3251.55 2524.34 3241.12 2506.24L3235.79 2497.01L3235.78 2497.01C3225.56 2479.21 3231.34 2456.54 3248.73 2445.85L3249.57 2445.35L3381.43 2368.75L3381.94 2368.45C3403.21 2355.61 3403.04 2324.47 3381.44 2311.92L3249.57 2235.32V2235.32C3231.53 2224.85 3225.39 2201.73 3235.78 2183.66L3235.79 2183.66L3241.12 2174.42Z" stroke="black" stroke-width="5"/>
<path d="M892.239 2174.42C902.662 2156.33 925.749 2150.12 943.812 2160.58L1197.79 2307.56C1222.75 2322.02 1222.94 2357.97 1198.38 2372.76L1197.79 2373.1L943.812 2520.09C925.749 2530.54 902.662 2524.34 892.239 2506.24L886.903 2497.01L886.9 2497.01C876.673 2479.21 882.461 2456.54 899.847 2445.85L900.684 2445.35L1032.55 2368.75L1033.06 2368.45C1054.33 2355.61 1054.16 2324.47 1032.55 2311.92L900.684 2235.32V2235.32C882.649 2224.85 876.51 2201.73 886.9 2183.66L886.903 2183.66L892.239 2174.42Z" stroke="black" stroke-width="5"/>
<path d="M2066.68 2174.42C2077.1 2156.33 2100.19 2150.12 2118.25 2160.58L2372.23 2307.56C2397.19 2322.02 2397.38 2357.97 2372.82 2372.76L2372.23 2373.1L2118.25 2520.09C2100.19 2530.54 2077.1 2524.34 2066.68 2506.24L2061.34 2497.01L2061.34 2497.01C2051.11 2479.21 2056.9 2456.54 2074.29 2445.85L2075.12 2445.35L2206.99 2368.75L2207.5 2368.45C2228.77 2355.61 2228.6 2324.47 2206.99 2311.92L2075.12 2235.32V2235.32C2057.09 2224.85 2050.95 2201.73 2061.34 2183.66L2061.34 2183.66L2066.68 2174.42Z" stroke="black" stroke-width="5"/>
<path d="M3798.85 351.093C3809.11 333.279 3831.64 326.989 3849.57 336.765L3850.42 337.243V337.244L4104.4 484.231L4104.99 484.577C4129.36 499.248 4129.36 534.754 4104.99 549.425L4104.4 549.771L3850.42 696.756C3832.36 707.21 3809.27 701.005 3798.85 682.909L3793.51 673.679L3793.51 673.674C3783.12 655.599 3789.26 632.485 3807.29 622.015L3939.16 545.417C3960.94 532.767 3960.94 501.236 3939.16 488.583L3807.29 411.987V411.986C3789.26 401.515 3783.12 378.401 3793.51 360.328L3793.51 360.323L3798.85 351.093Z" stroke="black" stroke-width="5"/>
<path d="M1449.96 351.093C1460.39 332.997 1483.47 326.792 1501.54 337.243V337.244L1755.52 484.231C1780.47 498.683 1780.67 534.638 1756.1 549.425L1755.52 549.771L1501.54 696.756C1483.47 707.209 1460.39 701.005 1449.96 682.909L1444.63 673.679L1444.62 673.674C1434.23 655.598 1440.37 632.485 1458.41 622.015L1590.27 545.417L1590.78 545.117C1612.05 532.276 1611.88 501.137 1590.28 488.583L1458.41 411.987C1440.37 401.517 1434.23 378.401 1444.62 360.328L1444.63 360.323L1449.96 351.093Z" stroke="black" stroke-width="5"/>
<path d="M2624.41 351.093C2634.83 332.997 2657.92 326.792 2675.98 337.243V337.244L2929.96 484.231C2954.92 498.683 2955.11 534.638 2930.55 549.425L2929.96 549.771L2675.98 696.756C2657.92 707.209 2634.83 701.005 2624.41 682.909L2619.07 673.679L2619.07 673.674C2608.68 655.598 2614.82 632.485 2632.85 622.015L2764.72 545.417L2765.23 545.117C2786.49 532.276 2786.33 501.137 2764.72 488.583L2632.85 411.987C2614.82 401.517 2608.68 378.401 2619.07 360.328L2619.07 360.323L2624.41 351.093Z" stroke="black" stroke-width="5"/>
<path d="M3407.37 351.093C3417.79 332.997 3440.88 326.792 3458.94 337.243V337.244L3712.92 484.231H3712.92C3738.07 498.797 3738.07 535.205 3712.92 549.771H3712.92L3458.94 696.756C3440.88 707.209 3417.79 701.005 3407.37 682.909L3402.03 673.679L3402.03 673.674C3391.64 655.598 3397.78 632.485 3415.81 622.015L3547.68 545.417L3548.19 545.117C3569.46 532.276 3569.29 501.137 3547.68 488.583L3415.81 411.987C3397.78 401.517 3391.64 378.401 3402.03 360.328L3402.03 360.323L3407.37 351.093Z" stroke="black" stroke-width="5"/>
<path d="M1058.49 351.093C1068.91 332.997 1092 326.792 1110.06 337.243V337.244L1364.04 484.231C1388.99 498.683 1389.19 534.638 1364.62 549.425L1364.04 549.771L1110.06 696.756C1091.99 707.209 1068.91 701.005 1058.49 682.909L1053.15 673.679L1053.15 673.674C1042.76 655.598 1048.89 632.485 1066.93 622.015L1198.8 545.417L1199.3 545.117C1220.57 532.276 1220.4 501.137 1198.8 488.583L1066.93 411.987C1048.89 401.517 1042.76 378.401 1053.15 360.328L1053.15 360.323L1058.49 351.093Z" stroke="black" stroke-width="5"/>
<path d="M2232.92 351.093C2243.35 332.997 2266.43 326.792 2284.5 337.243V337.244L2538.48 484.231C2563.43 498.683 2563.63 534.638 2539.06 549.425L2538.48 549.771L2284.5 696.756C2266.43 707.209 2243.35 701.005 2232.92 682.909L2227.59 673.679L2227.58 673.674C2217.19 655.598 2223.33 632.485 2241.37 622.015L2373.24 545.417L2373.74 545.117C2395.01 532.276 2394.84 501.137 2373.24 488.583L2241.37 411.987C2223.33 401.517 2217.19 378.401 2227.58 360.328L2227.59 360.323L2232.92 351.093Z" stroke="black" stroke-width="5"/>
<path d="M3015.88 351.093C3026.31 332.997 3049.39 326.792 3067.46 337.243V337.244L3321.44 484.231C3346.39 498.683 3346.59 534.638 3322.02 549.425L3321.44 549.771L3067.46 696.756C3049.39 707.209 3026.31 701.005 3015.88 682.909L3010.55 673.679L3010.54 673.674C3000.16 655.598 3006.29 632.485 3024.33 622.015L3156.2 545.417L3156.7 545.117C3177.97 532.276 3177.8 501.137 3156.2 488.583L3024.33 411.987C3006.29 401.517 3000.16 378.401 3010.54 360.328L3010.55 360.323L3015.88 351.093Z" stroke="black" stroke-width="5"/>
<path d="M1841.45 351.093C1851.87 332.997 1874.96 326.792 1893.02 337.243V337.244L2147 484.231C2171.96 498.683 2172.15 534.638 2147.58 549.425L2147 549.771L1893.02 696.756C1874.96 707.209 1851.87 701.005 1841.45 682.909L1836.11 673.679L1836.11 673.674C1825.72 655.598 1831.86 632.485 1849.89 622.015L1981.76 545.417L1982.27 545.117C2003.53 532.276 2003.37 501.137 1981.76 488.583L1849.89 411.987C1831.86 401.517 1825.72 378.401 1836.11 360.328L1836.11 360.323L1841.45 351.093Z" stroke="black" stroke-width="5"/>
<path d="M3798.85 1809.76C3809.11 1791.95 3831.64 1785.66 3849.57 1795.43L3850.42 1795.91V1795.91L4104.4 1942.9L4104.99 1943.24C4129.36 1957.92 4129.36 1993.42 4104.99 2008.09L4104.4 2008.44L3850.42 2155.42C3832.36 2165.88 3809.27 2159.67 3798.85 2141.58L3793.51 2132.35L3793.51 2132.34C3783.12 2114.27 3789.26 2091.15 3807.29 2080.68L3939.16 2004.08C3960.94 1991.43 3960.94 1959.9 3939.16 1947.25L3807.29 1870.65V1870.65C3789.26 1860.18 3783.12 1837.07 3793.51 1819L3793.51 1818.99L3798.85 1809.76Z" stroke="black" stroke-width="5"/>
<path d="M1449.96 1809.76C1460.39 1791.66 1483.47 1785.46 1501.54 1795.91V1795.91L1755.52 1942.9C1780.47 1957.35 1780.67 1993.3 1756.1 2008.09L1755.52 2008.44L1501.54 2155.42C1483.47 2165.88 1460.38 2159.67 1449.96 2141.58L1444.63 2132.35L1444.62 2132.34C1434.23 2114.27 1440.37 2091.15 1458.41 2080.68L1590.27 2004.08L1590.78 2003.78C1612.05 1990.94 1611.88 1959.8 1590.28 1947.25L1458.41 1870.65C1440.37 1860.18 1434.23 1837.07 1444.62 1819L1444.63 1818.99L1449.96 1809.76Z" stroke="black" stroke-width="5"/>
<path d="M2624.41 1809.76C2634.83 1791.66 2657.92 1785.46 2675.98 1795.91V1795.91L2929.96 1942.9C2954.92 1957.35 2955.11 1993.3 2930.55 2008.09L2929.96 2008.44L2675.98 2155.42C2657.92 2165.88 2634.83 2159.67 2624.41 2141.58L2619.07 2132.35L2619.07 2132.34C2608.68 2114.27 2614.82 2091.15 2632.85 2080.68L2764.72 2004.08L2765.23 2003.78C2786.49 1990.94 2786.33 1959.8 2764.72 1947.25L2632.85 1870.65C2614.82 1860.18 2608.68 1837.07 2619.07 1819L2619.07 1818.99L2624.41 1809.76Z" stroke="black" stroke-width="5"/>
<path d="M3407.37 1809.76C3417.79 1791.66 3440.88 1785.46 3458.94 1795.91V1795.91L3712.92 1942.9H3712.92C3738.07 1957.46 3738.07 1993.87 3712.92 2008.44H3712.92L3458.94 2155.42C3440.88 2165.88 3417.79 2159.67 3407.37 2141.58L3402.03 2132.35L3402.03 2132.34C3391.64 2114.27 3397.78 2091.15 3415.81 2080.68L3547.68 2004.08L3548.19 2003.78C3569.46 1990.94 3569.29 1959.8 3547.68 1947.25L3415.81 1870.65C3397.78 1860.18 3391.64 1837.07 3402.03 1819L3402.03 1818.99L3407.37 1809.76Z" stroke="black" stroke-width="5"/>
<path d="M1058.49 1809.76C1068.91 1791.66 1092 1785.46 1110.06 1795.91V1795.91L1364.04 1942.9C1388.99 1957.35 1389.19 1993.3 1364.62 2008.09L1364.04 2008.44L1110.06 2155.42C1091.99 2165.88 1068.91 2159.67 1058.49 2141.58L1053.15 2132.35L1053.15 2132.34C1042.76 2114.27 1048.89 2091.15 1066.93 2080.68L1198.8 2004.08L1199.3 2003.78C1220.57 1990.94 1220.4 1959.8 1198.8 1947.25L1066.93 1870.65C1048.9 1860.18 1042.76 1837.07 1053.15 1819L1053.15 1818.99L1058.49 1809.76Z" stroke="black" stroke-width="5"/>
<path d="M2232.92 1809.76C2243.35 1791.66 2266.43 1785.46 2284.5 1795.91V1795.91L2538.48 1942.9C2563.43 1957.35 2563.63 1993.3 2539.06 2008.09L2538.48 2008.44L2284.5 2155.42C2266.43 2165.88 2243.35 2159.67 2232.92 2141.58L2227.59 2132.35L2227.58 2132.34C2217.19 2114.27 2223.33 2091.15 2241.37 2080.68L2373.24 2004.08L2373.74 2003.78C2395.01 1990.94 2394.84 1959.8 2373.24 1947.25L2241.37 1870.65C2223.33 1860.18 2217.19 1837.07 2227.58 1819L2227.59 1818.99L2232.92 1809.76Z" stroke="black" stroke-width="5"/>
<path d="M3015.88 1809.76C3026.31 1791.66 3049.39 1785.46 3067.46 1795.91V1795.91L3321.44 1942.9C3346.39 1957.35 3346.59 1993.3 3322.02 2008.09L3321.44 2008.44L3067.46 2155.42C3049.39 2165.88 3026.31 2159.67 3015.88 2141.58L3010.55 2132.35L3010.54 2132.34C3000.16 2114.27 3006.29 2091.15 3024.33 2080.68L3156.2 2004.08L3156.7 2003.78C3177.97 1990.94 3177.8 1959.8 3156.2 1947.25L3024.33 1870.65C3006.29 1860.18 3000.16 1837.07 3010.54 1819L3010.55 1818.99L3015.88 1809.76Z" stroke="black" stroke-width="5"/>
<path d="M1841.45 1809.76C1851.87 1791.66 1874.96 1785.46 1893.02 1795.91V1795.91L2147 1942.9C2171.96 1957.35 2172.15 1993.3 2147.58 2008.09L2147 2008.44L1893.02 2155.42C1874.96 2165.88 1851.87 2159.67 1841.45 2141.58L1836.11 2132.35L1836.11 2132.34C1825.72 2114.27 1831.86 2091.15 1849.89 2080.68L1981.76 2004.08L1982.27 2003.78C2003.53 1990.94 2003.37 1959.8 1981.76 1947.25L1849.89 1870.65C1831.86 1860.18 1825.72 1837.07 1836.11 1819L1836.11 1818.99L1841.45 1809.76Z" stroke="black" stroke-width="5"/>
<path d="M3798.85 1080.43C3809.11 1062.61 3831.64 1056.32 3849.57 1066.1L3850.42 1066.58V1066.58L4104.4 1213.56L4104.99 1213.91C4129.36 1228.58 4129.36 1264.09 4104.99 1278.76L4104.4 1279.1L3850.42 1426.09C3832.36 1436.54 3809.27 1430.34 3798.85 1412.24L3793.51 1403.01L3793.51 1403.01C3783.12 1384.93 3789.26 1361.82 3807.29 1351.35L3939.16 1274.75C3960.94 1262.1 3960.94 1230.57 3939.16 1217.92L3807.29 1141.32V1141.32C3789.26 1130.85 3783.12 1107.73 3793.51 1089.66L3793.51 1089.66L3798.85 1080.43Z" stroke="black" stroke-width="5"/>
<path d="M1449.96 1080.43C1460.39 1062.33 1483.47 1056.13 1501.54 1066.58V1066.58L1755.52 1213.56C1780.47 1228.02 1780.67 1263.97 1756.1 1278.76L1755.52 1279.1L1501.54 1426.09C1483.47 1436.54 1460.39 1430.34 1449.96 1412.24L1444.63 1403.01L1444.62 1403.01C1434.23 1384.93 1440.37 1361.82 1458.41 1351.35L1590.27 1274.75L1590.78 1274.45C1612.05 1261.61 1611.88 1230.47 1590.28 1217.92L1458.41 1141.32C1440.37 1130.85 1434.23 1107.73 1444.62 1089.66L1444.63 1089.66L1449.96 1080.43Z" stroke="black" stroke-width="5"/>
<path d="M2624.41 1080.43C2634.83 1062.33 2657.92 1056.13 2675.98 1066.58V1066.58L2929.96 1213.56C2954.92 1228.02 2955.11 1263.97 2930.55 1278.76L2929.96 1279.1L2675.98 1426.09C2657.92 1436.54 2634.83 1430.34 2624.41 1412.24L2619.07 1403.01L2619.07 1403.01C2608.68 1384.93 2614.82 1361.82 2632.85 1351.35L2764.72 1274.75L2765.23 1274.45C2786.49 1261.61 2786.33 1230.47 2764.72 1217.92L2632.85 1141.32C2614.82 1130.85 2608.68 1107.73 2619.07 1089.66L2619.07 1089.66L2624.41 1080.43Z" stroke="black" stroke-width="5"/>
<path d="M3407.37 1080.43C3417.79 1062.33 3440.88 1056.13 3458.94 1066.58V1066.58L3712.92 1213.56H3712.92C3738.07 1228.13 3738.07 1264.54 3712.92 1279.1H3712.92L3458.94 1426.09C3440.88 1436.54 3417.79 1430.34 3407.37 1412.24L3402.03 1403.01L3402.03 1403.01C3391.64 1384.93 3397.78 1361.82 3415.81 1351.35L3547.68 1274.75L3548.19 1274.45C3569.46 1261.61 3569.29 1230.47 3547.68 1217.92L3415.81 1141.32C3397.78 1130.85 3391.64 1107.73 3402.03 1089.66L3402.03 1089.66L3407.37 1080.43Z" stroke="black" stroke-width="5"/>
<path d="M1058.49 1080.43C1068.91 1062.33 1092 1056.13 1110.06 1066.58V1066.58L1364.04 1213.56C1388.99 1228.02 1389.19 1263.97 1364.62 1278.76L1364.04 1279.1L1110.06 1426.09C1091.99 1436.54 1068.91 1430.34 1058.49 1412.24L1053.15 1403.01L1053.15 1403.01C1042.76 1384.93 1048.89 1361.82 1066.93 1351.35L1198.8 1274.75L1199.3 1274.45C1220.57 1261.61 1220.4 1230.47 1198.8 1217.92L1066.93 1141.32C1048.89 1130.85 1042.76 1107.73 1053.15 1089.66L1053.15 1089.66L1058.49 1080.43Z" stroke="black" stroke-width="5"/>
<path d="M2232.92 1080.43C2243.35 1062.33 2266.43 1056.13 2284.5 1066.58V1066.58L2538.48 1213.56C2563.43 1228.02 2563.63 1263.97 2539.06 1278.76L2538.48 1279.1L2284.5 1426.09C2266.43 1436.54 2243.35 1430.34 2232.92 1412.24L2227.59 1403.01L2227.58 1403.01C2217.19 1384.93 2223.33 1361.82 2241.37 1351.35L2373.24 1274.75L2373.74 1274.45C2395.01 1261.61 2394.84 1230.47 2373.24 1217.92L2241.37 1141.32C2223.33 1130.85 2217.19 1107.73 2227.58 1089.66L2227.59 1089.66L2232.92 1080.43Z" stroke="black" stroke-width="5"/>
<path d="M3015.88 1080.43C3026.31 1062.33 3049.39 1056.13 3067.46 1066.58V1066.58L3321.44 1213.56C3346.39 1228.02 3346.59 1263.97 3322.02 1278.76L3321.44 1279.1L3067.46 1426.09C3049.39 1436.54 3026.31 1430.34 3015.88 1412.24L3010.55 1403.01L3010.54 1403.01C3000.16 1384.93 3006.29 1361.82 3024.33 1351.35L3156.2 1274.75L3156.7 1274.45C3177.97 1261.61 3177.8 1230.47 3156.2 1217.92L3024.33 1141.32C3006.29 1130.85 3000.16 1107.73 3010.54 1089.66L3010.55 1089.66L3015.88 1080.43Z" stroke="black" stroke-width="5"/>
<path d="M1841.45 1080.43C1851.87 1062.33 1874.96 1056.13 1893.02 1066.58V1066.58L2147 1213.56C2171.96 1228.02 2172.15 1263.97 2147.58 1278.76L2147 1279.1L1893.02 1426.09C1874.96 1436.54 1851.87 1430.34 1841.45 1412.24L1836.11 1403.01L1836.11 1403.01C1825.72 1384.93 1831.86 1361.82 1849.89 1351.35L1981.76 1274.75L1982.27 1274.45C2003.53 1261.61 2003.37 1230.47 1981.76 1217.92L1849.89 1141.32C1831.86 1130.85 1825.72 1107.73 1836.11 1089.66L1836.11 1089.66L1841.45 1080.43Z" stroke="black" stroke-width="5"/>
<path d="M3798.85 2539.09C3809.27 2520.99 3832.36 2514.79 3850.42 2525.24L4104.4 2672.23H4104.4C4129.55 2686.8 4129.56 2723.2 4104.4 2737.76L4104.4 2737.76L3850.42 2884.75C3832.36 2895.21 3809.27 2889 3798.85 2870.91V2870.91L3793.51 2861.69L3793.51 2861.69C3783.12 2843.6 3789.26 2820.49 3807.29 2810.01L3939.16 2733.41L3939.67 2733.11C3960.94 2720.27 3960.77 2689.14 3939.16 2676.58L3807.29 2599.98C3789.26 2589.52 3783.12 2566.4 3793.51 2548.33L3793.51 2548.32L3798.85 2539.09Z" stroke="black" stroke-width="5"/>
<path d="M1449.96 2539.09C1460.39 2521 1483.47 2514.79 1501.54 2525.24L1755.52 2672.23C1780.67 2686.8 1780.67 2723.2 1755.51 2737.76L1755.51 2737.76L1501.54 2884.75H1501.54C1483.47 2895.2 1460.39 2889 1449.96 2870.92L1444.63 2861.69L1444.62 2861.69C1434.23 2843.6 1440.37 2820.49 1458.4 2810.01H1458.41L1590.27 2733.41H1590.28C1612.05 2720.77 1612.05 2689.24 1590.28 2676.58L1458.41 2599.98V2599.99C1440.37 2589.52 1434.23 2566.4 1444.62 2548.33L1444.63 2548.32L1449.96 2539.09Z" stroke="black" stroke-width="5"/>
<path d="M2624.41 2539.09C2634.83 2521 2657.92 2514.79 2675.98 2525.24L2929.96 2672.23C2955.11 2686.8 2955.11 2723.2 2929.96 2737.76L2929.96 2737.76L2675.98 2884.75H2675.98C2657.92 2895.2 2634.83 2889 2624.41 2870.92L2619.07 2861.69L2619.07 2861.69C2608.68 2843.6 2614.82 2820.49 2632.85 2810.01H2632.85L2764.72 2733.41H2764.72C2786.5 2720.77 2786.5 2689.24 2764.72 2676.58L2632.85 2599.98V2599.99C2614.82 2589.52 2608.68 2566.4 2619.07 2548.33L2619.07 2548.32L2624.41 2539.09Z" stroke="black" stroke-width="5"/>
<path d="M3407.37 2539.09C3417.79 2521 3440.88 2514.79 3458.94 2525.24L3712.92 2672.23H3712.92C3738.07 2686.8 3738.08 2723.2 3712.92 2737.76L3712.92 2737.76L3458.94 2884.75H3458.94C3440.88 2895.2 3417.79 2889 3407.37 2870.92L3402.03 2861.69L3402.03 2861.69C3391.64 2843.6 3397.78 2820.49 3415.81 2810.01H3415.81L3547.68 2733.41H3547.68C3569.46 2720.77 3569.46 2689.24 3547.68 2676.58L3415.81 2599.98V2599.99C3397.78 2589.52 3391.64 2566.4 3402.03 2548.33L3402.03 2548.32L3407.37 2539.09Z" stroke="black" stroke-width="5"/>
<path d="M1058.49 2539.09C1068.91 2521 1092 2514.79 1110.06 2525.24L1364.04 2672.23C1389.19 2686.8 1389.19 2723.2 1364.04 2737.76L1364.04 2737.76L1110.06 2884.75H1110.06C1092 2895.2 1068.91 2889 1058.49 2870.92L1053.15 2861.69L1053.15 2861.69C1042.76 2843.6 1048.9 2820.49 1066.93 2810.01H1066.93L1198.8 2733.41H1198.8C1220.57 2720.77 1220.58 2689.24 1198.8 2676.58L1066.93 2599.98V2599.99C1048.9 2589.52 1042.76 2566.4 1053.15 2548.33L1053.15 2548.32L1058.49 2539.09Z" stroke="black" stroke-width="5"/>
<path d="M2232.92 2539.09C2243.35 2521 2266.43 2514.79 2284.5 2525.24L2538.48 2672.23C2563.63 2686.8 2563.63 2723.2 2538.48 2737.76L2538.47 2737.76L2284.5 2884.75H2284.5C2266.43 2895.2 2243.35 2889 2232.92 2870.92L2227.59 2861.69L2227.58 2861.69C2217.19 2843.6 2223.33 2820.49 2241.37 2810.01H2241.37L2373.24 2733.41H2373.24C2395.01 2720.77 2395.01 2689.24 2373.24 2676.58L2241.37 2599.98V2599.99C2223.33 2589.52 2217.19 2566.4 2227.58 2548.33L2227.59 2548.32L2232.92 2539.09Z" stroke="black" stroke-width="5"/>
<path d="M3015.88 2539.09C3026.31 2521 3049.39 2514.79 3067.46 2525.24L3321.44 2672.23C3346.59 2686.8 3346.59 2723.2 3321.44 2737.76L3321.44 2737.76L3067.46 2884.75H3067.46C3049.39 2895.2 3026.31 2889 3015.88 2870.92L3010.55 2861.69L3010.54 2861.69C3000.15 2843.6 3006.29 2820.49 3024.33 2810.01H3024.33L3156.2 2733.41H3156.2C3177.97 2720.77 3177.97 2689.24 3156.2 2676.58L3024.33 2599.98V2599.99C3006.29 2589.52 3000.15 2566.4 3010.54 2548.33L3010.55 2548.32L3015.88 2539.09Z" stroke="black" stroke-width="5"/>
<path d="M1841.45 2539.09C1851.87 2521 1874.96 2514.79 1893.02 2525.24L2147 2672.23C2172.15 2686.8 2172.15 2723.2 2147 2737.76L2147 2737.76L1893.02 2884.75H1893.02C1874.96 2895.2 1851.87 2889 1841.45 2870.92L1836.11 2861.69L1836.11 2861.69C1825.72 2843.6 1831.86 2820.49 1849.89 2810.01H1849.89L1981.76 2733.41H1981.76C2003.53 2720.77 2003.54 2689.24 1981.76 2676.58L1849.89 2599.98V2599.99C1831.86 2589.52 1825.72 2566.4 1836.11 2548.33L1836.11 2548.32L1841.45 2539.09Z" stroke="black" stroke-width="5"/>
<path d="M4024.08 2903.76C4034.5 2885.67 4057.59 2879.46 4075.66 2889.92L4329.64 3036.91C4354.79 3051.47 4354.79 3087.87 4329.64 3102.43L4075.66 3249.42C4057.59 3259.87 4034.5 3253.67 4024.08 3235.58V3235.58L4018.75 3226.36L4018.74 3226.35C4008.35 3208.27 4014.49 3185.16 4032.53 3174.68L4164.4 3098.07L4164.4 3098.07C4186.17 3085.44 4186.17 3053.89 4164.4 3041.26L4164.4 3041.26L4032.53 2964.65C4014.49 2954.17 4008.35 2931.06 4018.74 2913.01L4018.75 2913.01L4024.08 2903.76Z" stroke="black" stroke-width="5"/>
<path d="M1675.2 2903.76C1685.62 2885.67 1708.71 2879.46 1726.77 2889.92H1726.77L1980.75 3036.91C2005.91 3051.47 2005.91 3087.87 1980.75 3102.43L1726.77 3249.42H1726.77C1708.71 3259.87 1685.62 3253.67 1675.2 3235.58L1669.86 3226.36L1669.86 3226.35C1659.47 3208.27 1665.61 3185.16 1683.64 3174.68H1683.64L1815.51 3098.07L1815.51 3098.07C1837.29 3085.44 1837.29 3053.89 1815.51 3041.26L1815.51 3041.26L1683.64 2964.65H1683.64C1665.61 2954.17 1659.47 2931.06 1669.86 2913.01L1669.86 2913.01L1675.2 2903.76Z" stroke="black" stroke-width="5"/>
<path d="M2849.64 2903.76C2860.06 2885.67 2883.15 2879.46 2901.21 2889.92H2901.22L3155.2 3036.91C3180.35 3051.47 3180.35 3087.87 3155.2 3102.43L2901.22 3249.42H2901.21C2883.15 3259.87 2860.06 3253.67 2849.64 3235.58L2844.31 3226.36L2844.3 3226.35C2833.91 3208.27 2840.05 3185.16 2858.08 3174.68H2858.08L2989.95 3098.07L2989.96 3098.07C3011.73 3085.44 3011.73 3053.89 2989.96 3041.26L2989.95 3041.26L2858.08 2964.65H2858.08C2840.05 2954.17 2833.91 2931.06 2844.3 2913.01L2844.3 2913.01L2849.64 2903.76Z" stroke="black" stroke-width="5"/>
<path d="M3632.6 2903.76C3643.02 2885.67 3666.11 2879.46 3684.18 2889.92H3684.18L3938.16 3036.91C3963.31 3051.47 3963.31 3087.87 3938.16 3102.43L3684.18 3249.42H3684.18C3666.11 3259.87 3643.03 3253.67 3632.6 3235.58L3627.27 3226.36L3627.26 3226.35C3616.87 3208.27 3623.01 3185.16 3641.04 3174.68H3641.05L3772.92 3098.07L3772.92 3098.07C3794.69 3085.44 3794.69 3053.89 3772.92 3041.26L3772.92 3041.26L3641.05 2964.65H3641.04C3623.01 2954.17 3616.87 2931.06 3627.26 2913.01L3627.27 2913.01L3632.6 2903.76Z" stroke="black" stroke-width="5"/>
<path d="M1283.72 2903.76C1294.14 2885.67 1317.23 2879.46 1335.29 2889.92H1335.29L1589.27 3036.91C1614.43 3051.47 1614.43 3087.87 1589.27 3102.43L1335.29 3249.42H1335.29C1317.23 3259.87 1294.14 3253.67 1283.72 3235.58L1278.38 3226.36L1278.38 3226.35C1267.99 3208.27 1274.13 3185.16 1292.16 3174.68H1292.16L1424.03 3098.07L1424.03 3098.07C1445.81 3085.44 1445.81 3053.89 1424.03 3041.26L1424.03 3041.26L1292.16 2964.65H1292.16C1274.13 2954.17 1267.99 2931.06 1278.38 2913.01L1278.38 2913.01L1283.72 2903.76Z" stroke="black" stroke-width="5"/>
<path d="M2458.16 2903.76C2468.58 2885.67 2491.67 2879.46 2509.73 2889.92H2509.74L2763.71 3036.91C2788.87 3051.47 2788.87 3087.87 2763.71 3102.43L2509.74 3249.42H2509.73C2491.67 3259.87 2468.58 3253.67 2458.16 3235.58L2452.83 3226.36L2452.82 3226.35C2442.43 3208.27 2448.57 3185.16 2466.6 3174.68H2466.6L2598.47 3098.07L2598.48 3098.07C2620.25 3085.44 2620.25 3053.89 2598.48 3041.26L2598.47 3041.26L2466.6 2964.65H2466.6C2448.57 2954.17 2442.43 2931.06 2452.82 2913.01L2452.82 2913.01L2458.16 2903.76Z" stroke="black" stroke-width="5"/>
<path d="M3241.12 2903.76C3251.54 2885.67 3274.63 2879.46 3292.7 2889.92H3292.7L3546.68 3036.91C3571.83 3051.47 3571.83 3087.87 3546.68 3102.43L3292.7 3249.42H3292.7C3274.63 3259.87 3251.55 3253.67 3241.12 3235.58L3235.79 3226.36L3235.78 3226.35C3225.39 3208.27 3231.53 3185.16 3249.56 3174.68H3249.57L3381.43 3098.07L3381.44 3098.07C3403.21 3085.44 3403.21 3053.89 3381.44 3041.26L3381.43 3041.26L3249.57 2964.65H3249.56C3231.53 2954.17 3225.39 2931.06 3235.78 2913.01L3235.79 2913.01L3241.12 2903.76Z" stroke="black" stroke-width="5"/>
<path d="M892.237 2903.76C902.66 2885.67 925.748 2879.46 943.812 2889.92H943.813L1197.79 3036.91C1222.94 3051.47 1222.95 3087.87 1197.79 3102.43L943.813 3249.42H943.812C925.749 3259.87 902.663 3253.67 892.239 3235.58L886.903 3226.36L886.899 3226.35C876.51 3208.27 882.649 3185.16 900.682 3174.68H900.683L1032.55 3098.07L1032.55 3098.07C1054.33 3085.44 1054.33 3053.89 1032.55 3041.26L1032.55 3041.26L900.683 2964.65H900.682C882.65 2954.17 876.509 2931.06 886.9 2913.01L886.902 2913.01L892.237 2903.76Z" stroke="black" stroke-width="5"/>
<path d="M2066.68 2903.76C2077.1 2885.67 2100.19 2879.46 2118.25 2889.92H2118.25L2372.23 3036.91C2397.39 3051.47 2397.39 3087.87 2372.23 3102.43L2118.25 3249.42H2118.25C2100.19 3259.87 2077.1 3253.67 2066.68 3235.58L2061.34 3226.36L2061.34 3226.35C2050.95 3208.27 2057.09 3185.16 2075.12 3174.68H2075.12L2206.99 3098.07L2207 3098.07C2228.77 3085.44 2228.77 3053.89 2207 3041.26L2206.99 3041.26L2075.12 2964.65H2075.12C2057.09 2954.17 2050.95 2931.06 2061.34 2913.01L2061.34 2913.01L2066.68 2903.76Z" stroke="black" stroke-width="5"/>
</g>
</g>
</g>
<defs>
<clipPath id="clip0_1195_1839">
<rect width="4262" height="4352" fill="white"/>
</clipPath>
</defs>
</svg>
